<svg xmlns="http://www.w3.org/2000/svg" height="249.18" width="214" viewBox="0 0 214 249.17809">
 <g transform="matrix(1.5558 0 0 1.5558 .88470 1.1001)">
  <path fill="#183863" d="m124.38 44.802s3.0415-0.79934 9.0898 2.7108c0 0-3.828-14.988-11.958-19.931-0.40844-0.24328 3.5064-0.31713 9.2506-9.0839 0 0-6.2525-2.6457-9.0898-4.3008-4.6231-2.7108-9.0898-5.1045-11.64-5.2609-1.1254-0.069508-5.9527-1.2251-8.6075 1.4336-0.47796 0.47787-3.6107-1.2729-4.8882-1.2729 0 0 0.47796-0.86885 5.7398-2.1287 0.46492-0.11295-8.8769-5.6475-19.118-2.5457 0 0 1.0602-2.5501 4.4667-3.1887 0 0-10.606-3.7057-19.257 3.2669-8.691-7.0675-19.705-3.6963-19.705-3.6963 3.397 0.6386 4.462 3.1887 4.462 3.1887-10.254-3.0801-19.596 2.4371-19.118 2.5544 5.2619 1.2729 5.7398 2.12 5.7398 2.12-1.2731 0-4.4102 1.7377-4.8838 1.2772-2.664-2.663-7.491-1.5074-8.617-1.4336-2.554 0.1564-7.012 2.5496-11.636 5.2566-2.841 1.664-9.0938 4.305-9.0938 4.305 5.7438 8.771 9.6588 8.841 9.2548 9.088-8.1338 4.944-11.962 19.932-11.962 19.932 6.0833-3.51 9.09-2.715 9.09-2.715-15.468 11.955-11.466 41.67-11.323 38.737 0.14328-2.932 5.97-6.446 7.204-6.803-0.6214 4.431-0.6909 10.205 0.7647 17.812 3.8283 19.987 17.432 29.767 17.432 29.767-1.566-4.92-1.876-10.15-0.899-15.21 0.13872 0.23572 0.22746 0.49746 0.2607 0.76893 0.7908 8.6885 3.5151 16.109 5.2619 18.494 4.9968 6.8031 2.3594 4.9959 12.67 12.968l-0.4345-10.526c0.38671 0.86886 1.9292 5.1132 2.3941 6.0038 8.9334 17.142 27.052 22.486 27.052 22.486-1.5425-10.096 1.8466-9.957 6.2699-13.55 3.1101-2.4322 5.7716-5.3887 7.8645-8.7363l0.0478-0.0912c0.86901-1.2816 1.7119-2.6066 2.9068-4.088-0.80383 4.7787-1.5251 7.8197-4.9751 10.426-0.56486 0.43443 24.954-12.32 23.793-33.16-0.10428-1.9158 2.6939 9.8875 2.0943 14.666 0 0 13.604-9.7789 17.432-29.763 1.4556-7.5981 1.3861-13.363 0.76038-17.811 1.2383 0.35623 7.0433 3.9359 7.2084 6.8075 0.1738 2.9063 4.1582-26.817-11.31-38.773z"/>
  <path d="m59.557 8.4043c-0.29464-0.012186-0.58903 0.00527-0.88477 0.054687 0 0 1.3803 1.1626 0.90234 4.8379 0 0-7.2773-5.5952-13.447-3.3535 0 0 3.3458 1.4866 4.4668 4.041 0 0-7.1267 1.0938-12.506 3.166-2.8938 2.0461-8.7928 7.8326-12.547 16.66 0.68652-0.12164 1.3582-0.21609 1.9883-0.28125 1.1732-0.11729 0.8013 11.359-2.2402 15.816-2.116 5.5737-3.2197 7.0813-2.7852 12.164 0.85163 9.9397 8.7795 17.121 13.342 23.359 4.5623 6.2384 6.2538 17.877 7.957 23.277 1.7033 5.3999 4.2581 12.497 14.486 14.77 7.2171 1.5856 13.313 0.63509 20.543 0.2832 11.614-0.57344 13.418-9.3759 15.121-14.771 1.7033-5.3956 3.4019-17.032 7.9512-23.279s11.068-15.171 12.08-23.352c0.33457-2.789-0.37844-8.3154-3.3809-12.955-3.1284-6.5294-3.6291-15.057-1.8477-14.883 0.70824 0.07385 1.4859 0.1954 2.2637 0.33008-3.4934-8.3236-8.9506-13.98-11.992-16.383-5.4443-2.2938-13.344-3.5-13.344-3.5 1.1167-2.5501 4.4629-4.041 4.4629-4.041-6.1656-2.246-13.447 3.3496-13.447 3.3496-0.47361-3.6666 0.9082-4.8359 0.9082-4.8359-4.724-0.7824-9.264 6.859-9.264 6.859l-0.20117-0.47266s-4.1663-6.6746-8.5859-6.8574zm-31.705 6.6307c-0.40151-0.01256-0.82709-0.008-1.2773 0.01367h-0.0078c-4.4624 0.21287-7.013 4.462-11.158 4.9355 0 0 2.7102 3.4356 10.705 3.6484l7.1523-6.7461c-0.95428-0.88949-2.6035-1.7637-5.4141-1.8516zm80.645 0.42188c-2.6772 0.07501-4.3084 0.85709-5.2969 1.6934l7.2949 6.9004c7.7429-0.29541 10.371-3.6367 10.371-3.6367-4.1452-0.47787-6.6939-4.7305-11.156-4.9434-0.42635-0.02009-0.83043-0.02439-1.2129-0.01367z" fill="#99caea"/>
  <path fill="#183863" d="m41.922 20.744c1.6207 4.2487 4.5362 7.3591 12.049 9.3184l2.9238 5.6465 3.2676 4.0879-0.67383-11.373s-7.4338-2.7924-17.566-7.6797zm53.025 0c-10.133 4.8873-17.566 7.6797-17.566 7.6797l-0.67383 11.373 3.2676-4.0879 2.9238-5.6465c7.5169-1.9593 10.428-5.0697 12.049-9.3184zm-50.48 13.375c-5.7137 0.1173-5.01 0.16115-11.158 1.6816 0 0-2.4922 1.716 7.043 3.1016-0.14045 0.45651-0.23828 0.93102-0.23828 1.4336 0 2.5457 1.9255 4.1875 4.9062 4.1875 2.9807-0.000001 4.9043-1.6418 4.9043-4.1875 0-1.1828-0.4354-2.2525-1.1328-3.0996 1.8414 0.73344 3.3052 2.422 3.0098 5.8242 1.7902 2.1095 1.7211 3.2123 2.2988 4.3867-1.4238 5.9706-5.4892 17.726-1.2207 20.889l0.36719-0.54688c0.03043 0.17889 0.06281 0.36276 0.11133 0.56836 0.81687 3.5406 9.5242 4.6261 11.432 5.9902-0.0325-0.21816-0.07754-0.43347-0.13476-0.64648 0.21473 0.19382 0.41824 0.40118 0.61328 0.61914l-0.93555 4.707c-1.9944 1.603-9.171 2.0545-13.164 0.60352-0.38231-0.13951-0.72404-0.28939-1.0332-0.44726 0.15441 0.0082 0.31406 0.0063 0.4668 0.01758 1.613 0.122 0.461-1.695 0.461-1.695-16.015-0.886-28.775 12.628-28.771 12.633 6.676-5.996 15.772-10.014 23.676-10.834 0.47894 0.70484 1.0074 1.5074 1.2109 1.9121 0.37368 0.74287 1.7987 1.555 3.7148 1.959-0.84728 1.0774-3.8357 6.3464-1.0723 11.686 1.4686 2.8411 3.5895 5.6469 3.0898 9.7305-0.59093 4.8482-1.5127 7.4503 0.79883 10.035 1.7945 2.0114 4.7792 1.7954 8.9766 0.60938 5.9788-1.7116 12.666-0.20436 14.561 0.19531 1.8944 0.39968 5.5843 0.80364 7.2832-1.1035s1.815-6.6651 1.6934-9.832c-0.19987-5.2696 1.3039-7.6238 2.3945-9.6309 2.6418-4.8134 0.20849-10.299-1.1211-11.902 2.229-0.24328 3.2803-1.2257 3.541-1.7383 0.21842-0.44179 0.53096-0.99863 0.9043-1.6836 7.4594 1.1965 15.708 5.0506 21.881 10.598 0.0155-0.0038-10.126-10.721-23.66-12.436l-0.32031-0.08008c-0.006 0.01211-0.01521 0.02313-0.02148 0.03516-1.5505-0.17814-3.1422-0.24242-4.7695-0.15234 0 0-1.1515 1.817 0.46484 1.6953 0.82391-0.0606 1.6785-0.06375 2.5469-0.03711-0.30451 0.15798-0.6397 0.31366-1.0098 0.4668-3.2718 1.3511-12.365 1.0039-14.338-0.60352l-0.90625-4.5664c0.32683-0.3554 0.67603-0.69962 1.0625-1.0215-0.0922 0.29699-0.16234 0.60075-0.20898 0.9082 1.9075-1.3641 10.619-2.4497 11.432-5.9902 0.0055-0.0238 0.0065-0.03527 0.01172-0.05859 4.0145-3.1927 0.20318-14.751-1.1855-20.734 0.64765-1.22 0.51728-2.3256 2.3555-4.5-0.29453-3.3947 1.1623-5.0836 2.9961-5.8203-0.69349 0.84622-1.127 1.9124-1.127 3.0918 0 2.5457 1.9255 4.1875 4.9062 4.1875 2.985-0.000001 4.9082-1.6418 4.9082-4.1875 0-0.60722-0.12448-1.182-0.32617-1.7188 9.2704-0.29133 7.127-2.8164 7.127-2.8164-5.445-2.031-5.444-1.562-11.162-1.684-13.279-0.291-11.684 8.916-14.955 10.293l0.2832 0.28711c-0.13213 0.10386-0.37891 0.28906-0.37891 0.28906 1.35 3.2214 4.0309 19.268 4.0703 19.504-2.6305 0.11683-5.5159 1.6305-8.6816 2.209-1.6511 0.29975-5.7221 1.0383-8.416 0-3.1678-1.2164-6.3284-2.3906-9.1035-2.2383 0.0555-0.32399 2.7916-16.262 4.1895-19.475 0 0-0.26878-0.19558-0.43359-0.32031l0.26-0.262c-3.277-1.373-1.078-10.578-14.965-10.287zm-4.049 4.569c-0.0085 0.02377-0.01526 0.04833-0.02344 0.07227l-0.04687-0.06055c0.02463 0.00091 0.04605-0.01081 0.07031-0.01172zm28.178 0.07031c-3.4907 0.01412-5.6758 2.2734-5.6758 2.2734l1.9121 0.48242c3.6672-2.1721 7.1738 0 7.1738 0l2.0781-0.96094c-2.0435-1.344-3.9016-1.8013-5.4883-1.7949zm-24.914 9.6582-11.164 4.3008c-0.54748 0.32582-7.8197 7.174-5.582 11.957 1.7132 3.6693 5.1703 5.4442 8.6484 6.2734-11.446 2.1945-20.059 9.9478-20.072 9.9512 8.5945-6.5381 20.456-9.9659 29.111-8.6191 1.6033 0.25197 0.59961-1.6543 0.59961-1.6543-0.29568-0.04042-0.58865-0.06523-0.88281-0.0957-14.836-10.331-0.658-22.113-0.658-22.113zm49.619 0s14.118 11.71-0.50195 22.023c-0.63572 0.04183-1.2746 0.09763-1.918 0.18555 0 0-0.99937 1.9063 0.59961 1.6543 8.6597-1.3467 20.512 2.081 29.111 8.6191-0.003-0.0033-8.3787-7.5451-19.59-9.8594 3.6098-0.78648 7.2683-2.5549 9.0449-6.3652 2.2334-4.7787-5.0365-11.631-5.584-11.957l-11.159-4.301zm-47.309 22.291s0.6089 1.1914 0.05273 1.6562c-0.20856 0.1868 1.0117 0.15039 1.0117 0.15039s0.31644-1.3809-0.10938-1.5938c-0.3008-0.13534-0.62526-0.20781-0.95508-0.21289zm44.129 0c-0.32974 0.0057-0.65604 0.07812-0.95703 0.21289-0.42147 0.21287-0.10742 1.5938-0.10742 1.5938s1.2203 0.03641 1.0117-0.15039c-0.56051-0.46484 0.05273-1.6562 0.05273-1.6562zm-44.844 3.1016c-14.596-0.086-26.478 11.138-26.494 11.138 8.425-6.742 20.201-10.439 28.891-9.297 1.6033 0.20852 0.55664-1.668 0.55664-1.668-0.99447-0.11295-1.9801-0.1681-2.9531-0.17383zm45.537 0c-0.97452 0.0057-1.9609 0.06088-2.957 0.17383 0 0-1.0428 1.8765 0.56055 1.668 8.6901-1.1425 20.459 2.5546 28.889 9.2969 0.008 0-11.874-11.225-26.492-11.139zm-41.828 0.24805s0.60891 1.1866 0.05273 1.6602c-0.21291 0.17811 1.0078 0.14258 1.0078 0.14258s0.31644-1.3813-0.10938-1.5898c-0.29961-0.13431-0.62288-0.20674-0.95117-0.21289zm38.145 0c-0.33118 0.0053-0.65658 0.07778-0.95898 0.21289-0.42147 0.20852-0.10156 1.5898-0.10156 1.5898s1.2227 0.03554 1.0098-0.14258c-0.55617-0.47352 0.05078-1.6602 0.05078-1.6602zm-35.32 3.505s0.61325 1.1818 0.05273 1.6641c-0.21291 0.17812 1.0117 0.14258 1.0117 0.14258s0.31644-1.3809-0.10938-1.5938c-0.30122-0.13409-0.62542-0.20649-0.95508-0.21289zm32.482 0c-0.3296 0.0069-0.65372 0.07925-0.95508 0.21289-0.42581 0.21287-0.10352 1.5938-0.10352 1.5938s1.2164 0.03554 1.0078-0.14258c-0.55617-0.48221 0.05078-1.6641 0.05078-1.6641zm-15.98 5.0742h0.38281c0.19987 1.4032 2.9585 2.081 5.1875 2.207 4.432 0.24762 3.91 0.55056 8.959-0.39648 0.41177 0.42189 0.99014 0.89588 1.543 1.5039l-0.15625 6.4727 1.5312-0.24219c-0.15454 0.75307-0.39019 1.5797-0.73633 2.502-1.4015 3.7356-2.0556 6.7158-2.1348 8.582-0.72851 1.3416-1.5664 2.4863-1.5664 2.4863v5.2949c-0.03149 0.0255-0.05544 0.0596-0.08789 0.084-1.1949 0.90361-2.7887 0.20341-4.0879 0.10352-0.28202-0.0217-1.0246-0.0787-1.8809-0.13477l2.332-8.918-4.5449 3.9785 2.0371 4.9258c-3.1584-0.19778-9.0311-0.39577-13.104 0.64453-1.7439 0.45372-3.0938 0.61418-4.082 0.49414-0.66779-1.781-1.4972-4.7099-0.75391-6.9336 0 0-1.0138-1.908-1.7734-3.8496-0.10845-1.9593-0.4095-3.4397-1.8672-6.0625-0.55356-1.0018-0.99135-1.9948-1.2656-2.9688l1.7812 0.11914-0.649-6.107c0.52718-0.63195 1.2101-1.2411 2.0762-1.8242 2.607 0.34754 3.9106 0.70308 7.6777 0.27734 2.3898-0.26934 4.9881-0.82488 5.1836-2.2324zm10.129 2.4551-3.1016 7.4375-0.0098 0.0039-0.67383-0.84961 0.15625-0.04492-2.668-5.791-2.3457 5.2676-1.334 1.7383-1.3809-2.1992 0.29102-0.11133-2.248-4.3926-3.0098 6.3613-0.01758 0.02148-0.30469-0.25-2.3203-6.8965-1.1426 4.041-0.04297-0.03516-0.08789 0.50195-0.34766 1.2266 0.11719 0.06836-0.53711 3.041c5.9658-0.5691 9.0897 3.1238 10.793 3.6973 1.7033 0.57344 4.0616-6.2513 12.6-3.4102l-0.77539-3.3945 0.0059-0.002-0.04492-0.16602-0.09375-0.41211-0.01367 0.0059-1.4629-5.457zm-18.453 16.52 2.5547 9.0938 1.707-3.9805-4.2617-5.1133z"/>
  <path d="m45.02 37.221c-1.7196 0.0024-3.1128 1.396-3.1152 3.1152 0 2.2243 2.3853 2.3984 3.1152 2.3984 0.72997 0 3.1152-0.17417 3.1152-2.3984-0.0024-1.7193-1.3956-3.1128-3.1152-3.1152zm47.031 0c-1.7196 0.0024-3.1148 1.396-3.1172 3.1152 0 2.2243 2.3872 2.3984 3.1172 2.3984 0.72997 0 3.1055-0.16158 3.1055-2.3945 0.000016-1.7176-1.3876-3.112-3.1055-3.1191z" fill="#fff"/>
  <path fill="#183863" d="m65.232 6.7637s1.1246 9.4793 2.1152 21.908l2.6074 0.31836s0.8-10.458 2.1035-22.227h-6.8262zm-20.043 29.98c-1.1271 0.000668-2.0491 0.89878-2.0762 2.0254-0.02709 1.1266 0.84881 2.0702 1.9746 2.125 1.1258 0.05482 2.0913-0.79797 2.1738-1.9219 0.03202-1.1834-0.8894-2.1745-2.0723-2.2285zm47.09 0c-1.1247-0.0015-2.0449 0.89347-2.0742 2.0176-0.02932 1.1241 0.84356 2.0659 1.9668 2.123 1.1232 0.05711 2.087-0.79083 2.1719-1.9121 0.03216-1.1802-0.88503-2.1699-2.0645-2.2285zm-62.742 8.0762-9.1719 3.1543 4.0625 3.8965 5.1094-7.0508zm77.469 0.68555 6.2441 7.4023 2.9277-4.252-9.1719-3.1504zm-38.371 35.666c-1.9025 0-6.7189 1.689-8.7734 2.7305-0.04807-0.08648-0.09875-0.17253-0.17383-0.24024-0.60396-0.55606-1.9891-0.49166-3.6055-0.36133-0.38671 0.0304-0.71742 0.05664-0.94336 0.05664h-0.15234l-0.11133 0.10547c-0.20856 0.19549-4.9361 4.8557 1.5293 15.682l0.71094-0.21289c-0.0087-2.6071 0.3619-5.2005 1.0996-7.7012 0.21725-0.75156 0.43944-1.5004 0.65234-2.2129 0.25642-0.85028 0.4758-1.6088 0.66797-2.3203l2.5117 6.8516 3.0996-6.5332 3.4102 6.4336 3.5664-6.7422 3.2461 6.791 2.9492-6.9844c0.20175 0.76329 0.45258 1.6117 0.73242 2.543 0.19987 0.71246 0.42425 1.444 0.63281 2.1738 0.7352 2.4997 1.1058 5.0917 1.0996 7.6973l0.7168 0.2168c6.4611-10.826 1.7335-15.487 1.5293-15.695l-0.11328-0.10547h-0.15039c-0.2216 0-0.55665-0.02428-0.94336-0.05469-1.6164-0.13033-3.0035-0.19669-3.6074 0.35938-0.19407 0.17501-0.30233 0.42623-0.29883 0.6875 0 0.04733 0.01503 0.11872 0.01758 0.16992-1.671-0.77632-7.2866-3.334-9.2988-3.334zm-9.0469 16.969c-6.461 10.829-1.734 15.489-1.53 15.679l0.11328 0.10352h0.15234c0.22594 0 0.55665 0.0262 0.94336 0.0566 0.617 0.0521 1.1939 0.0918 1.7109 0.0918 0.84728 0 1.5248-0.10842 1.8984-0.44727 0.19406-0.17501 0.30428-0.42623 0.30078-0.6875 0-0.27918-0.05804-0.64579-0.13867-1.0508 0.6635 0.15754 3.7904 0.83789 5.2734 0.83789 1.6017 0 6.2642-1.2275 6.6699-1.3359-0.14737 0.62395-0.25195 1.1739-0.25195 1.5625-0.01021 0.25725 0.08899 0.50591 0.27344 0.68555 0.37367 0.32582 1.0531 0.43555 1.9004 0.43555 0.53444 0 1.115-0.039 1.7363-0.0781 0.38671-0.0304 0.71742-0.0566 0.94336-0.0566h0.15234l0.11328-0.10547c0.20856-0.19115 4.9318-4.8518-1.5293-15.678l-0.7168 0.2168c0.0074 2.6088-0.36428 5.2051-1.1035 7.707-0.21291 0.74721-0.43553 1.4911-0.64844 2.1992-0.23731 0.79261-0.43576 1.4904-0.62109 2.166l-2.4727-6.3672-4.1094 4.8086-3.9844-4.6973-1.9941 6.2207c-0.18403-0.66761-0.37886-1.3537-0.61328-2.1367-0.21291-0.7168-0.43553-1.4598-0.64844-2.207-0.73923-2.5019-1.1109-5.0963-1.1035-7.7051l-0.7168-0.21875z"/>
  <path d="m68.617 81.959c-2.0118 0-7.7698 2.1716-8.9473 2.9102l2.4648 6.6816 2.959-6.2559 3.4492 6.5176 3.6074-6.8125 3.1445 6.6211 2.6328-6.2441c-1.481-0.691-7.446-3.418-9.31-3.418zm-10.767 2.01c-0.5931-0.0027-1.2536 0.05097-1.7207 0.08789-0.29546 0.0391-0.58221 0.06162-0.8125 0.07031-0.58658 0.68639-3.5752 4.8296 1.0566 13.396 0.12889-2.2062 0.49989-4.3908 1.1074-6.5156 0.21291-0.7559 0.43465-1.5035 0.65625-2.2246 0.56051-1.8593 1.0859-3.6175 1.0859-4.4473 0.0028-0.04526-0.01726-0.08893-0.05273-0.11719-0.20204-0.1868-0.72721-0.24728-1.3203-0.25zm22.256 0.01367c-0.60831 0-1.1567 0.0569-1.3652 0.24805-0.03548 0.02826-0.05358 0.07192-0.05078 0.11719 0 0.8341 0.53475 2.6079 1.0996 4.502 0.21291 0.70377 0.43446 1.4334 0.63867 2.1719 0.60702 2.125 0.97801 4.3095 1.1074 6.5156 4.6535-8.6016 1.6515-12.714 1.0605-13.396-0.23029 0-0.5168-0.03057-0.83398-0.05664-0.4432-0.04779-1.0784-0.10156-1.6562-0.10156zm-20.526 15.775c-4.6449 8.5712-1.6651 12.71-1.0742 13.396 0.2297 0.00028 0.51047 0.0307 0.82617 0.0566 0.91681 0.0739 2.6065 0.21344 3.041-0.16016 0.03547-0.0283 0.05553-0.0719 0.05273-0.11719 0-0.82541-0.52542-2.584-1.0859-4.4434-0.21725-0.7168-0.43509-1.4652-0.65234-2.2168-0.60791-2.1248-0.97892-4.3094-1.1074-6.5156zm18.748 0.0039c-0.13016 2.2064-0.50219 4.391-1.1113 6.5156-0.21291 0.75156-0.43509 1.4961-0.65234 2.2129-0.56051 1.8637-1.0859 3.6258-1.0859 4.4512-0.0028 0.0453 0.01531 0.0889 0.05078 0.11718 0.40409 0.3736 2.1088 0.23597 3.043 0.16211 0.31719-0.0261 0.59935-0.0479 0.83398-0.0566 0.58658-0.69508 3.5839-4.8398-1.0566-13.402h-0.02148zm-5.8301 5.8047-3.8457 4.5137-3.668-4.3457-1.7461 5.4141c1.0515 0.2259 3.8441 0.80273 5.0781 0.80273s4.9366-0.91138 6.1836-1.2285l-2.002-5.1562z" fill="#fff"/>
 </g>
</svg>
