<svg width="282" height="236" viewBox="0 0 282 236" fill="none" xmlns="http://www.w3.org/2000/svg">
<g clip-path="url(#clip0)">
<path d="M256.2 105.1C255 92.4 252.7 69.8 252.4 66.5C256.2 64.5 281.6 51.2 281.6 51.2C281.6 51.2 253.4 42 249.4 40.7C248.9 36.4 244.7 0 244.7 0L238.7 8.1C238.7 8.1 236.4 11.3 233.4 15.3L225.2 14.2C215.4 12.9 205.5 12.3 195.7 12.4C149.7 12.7 105.9 27.1 69 54.1L62.6 58.7C62.6 58.7 69.1 63.8 71.5 65.7C55.6 76.9 41.5 90 29.4 104.7C21.3 105.4 13.3 106.1 5.5 106.8L0 107.2V222.3L8.9 217.5C19.2 211.9 29.9 206.9 40.8 202.7C44.6 205.8 48.3 208.9 49.8 210C48.3 214 40.6 235.4 40.6 235.4L52.6 231.1C81.9 220.6 109.8 215.7 140.4 215.7C169.6 215.7 199.8 221 227.7 230.9L239.7 235.2C239.7 235.2 232 213.9 230.5 209.9C231.9 208.7 235.7 205.6 239.4 202.6C250.3 206.8 261 211.7 271.3 217.3L280.2 222.1V107.2L274.7 106.8C268.6 106.2 262.4 105.7 256.2 105.1Z" fill="#FEBE10"/>
<path d="M274.3 110.7C233.4 107.4 187.1 102 140.3 102C120 102 99.8 103 80 104.5C102.7 96.1002 126.9 91.6002 151.7 91.4002L164.8 91.6002L161.6 88.2002L158.5 84.9002L158.4 84.8002C158.4 84.8002 154.9 81.0002 152.2 78.2002C164.9 78.1002 177.6 79.2002 190 81.5002C183.4 90.8002 177.5 99.1002 177.5 99.1002C177.5 99.1002 223.8 77.1002 226.3 76.0002C228.1 77.9002 251.8 102.7 251.8 102.7C251.8 102.7 248.3 66.9002 248.1 64.4002C250.2 63.3002 271.3 52.3002 271.3 52.3002C271.3 52.3002 247.9 44.6002 245.7 43.9002C245.4 41.6002 241.9 10.7002 241.9 10.7002L238.9 14.8002C238.9 14.8002 237.3 16.9002 235.2 19.8002L224.6 18.4002C215 17.2002 205.3 16.6002 195.6 16.6002C150.4 16.9002 107.4 31.1002 71.2 57.5002L69.1 59.0002C69.1 59.0002 75.8 64.3002 78 66.0002C60.3 77.9002 44.7 92.3002 31.5 108.6C22.8 109.4 14.2 110.1 5.9 110.8H4V215.4L7 213.8C18.1 207.7 29.7 202.4 41.6 197.9C45.4 201 53.2 207.4 54.5 208.5C53.7 210.8 47.2 228.6 47.2 228.6L51.2 227.2C80.9 216.5 109.2 211.5 140.3 211.5C169.9 211.5 200.6 216.8 228.9 226.9L232.9 228.3C232.9 228.3 226.5 210.5 225.6 208.3C227 207.2 234.8 200.7 238.5 197.7C250.4 202.2 261.9 207.4 273.1 213.5L276.1 215.1V110.7H274.3Z" fill="white"/>
<path d="M151.7 76.1C165.3 76 178.5 77.2 191.3 79.6C196.2 72.6 201.4 65.3 204.8 60.5C193.3 58.6 181.4 57.7 169.3 57.8C152 57.9 135.3 60.1 119.3 64.1L121.7 66.6H121.9L127.9 72.6L129.9 75C101.9 80.5 75.9001 91.4 53.2001 106.6C59.8001 106 66.5001 105.5 73.2001 104.9C97.4001 95 123.9 89.5 151.7 89.3C154.6 89.3 157.4 89.3 160.2 89.4L157.1 86.1L157 86L147.8 76.2L147.9 76.1C149.2 76.1 150.5 76.1 151.7 76.1Z" fill="#006940"/>
<path d="M224.3 20.2C214.9 19 205.4 18.4 195.6 18.5C149.4 18.8 106.8 33.9 72.4001 59L81 65.8L81.4001 66.1C63.6001 77.8 47.7 92 34.3 108.3C36.9 108.1 39.4 107.8 42 107.6C59.7001 91.2 80.3 77.8 103 68.2L99 64.4L93.5 59.2C120.9 46 151.6 38.5 184.1 38.2C187.5 38.2 190.9 38.2 194.3 38.4C187.3 30.3 180.4 22.3 180.4 22.3C180.4 22.3 220.3 35.4 222.9 36.2C223.8 35 229.5 27.3 233.8 21.5L224.3 20.2Z" fill="#006940"/>
<path d="M237.4 19.8002C237.4 19.8002 225.1 36.5002 223.5 38.5002C221 37.7002 186.5 26.4002 186.5 26.4002C186.5 26.4002 209.3 52.8002 211.2 54.9002C209.5 57.3002 183.7 93.8002 183.7 93.8002C183.7 93.8002 224.4 74.5002 226.9 73.3002C228.7 75.2002 249.4 96.9002 249.4 96.9002C249.4 96.9002 246.3 65.5002 246 63.0002C248.1 61.9002 266.2 52.4002 266.2 52.4002C266.2 52.4002 246 45.8002 243.9 45.1002C243.6 42.8002 240.5 15.7002 240.5 15.7002L237.4 19.8002Z" fill="black"/>
<path d="M236.4 197.1C205.8 185.9 173.1 180 140.2 180C107.2 180 74.4 185.9 43.6 197.2L56.8 208L50.5 225.4C80.3 214.7 108.9 209.6 140.3 209.6C170.2 209.6 201.1 215 229.6 225.2L223.3 207.8L236.4 197.1Z" fill="black"/>
<path d="M50.7 106.8C65.4 94.1 85 81.2 109 72.5C83.4 80 63.8 91.3 44.1 107.3C46.3 107.2 48.5 107 50.7 106.8Z" fill="#FEBE10"/>
<path d="M274.1 112.7C234.3 109.5 188.7 104 140.3 104C91.7 104 45.9 109.6 6.09998 112.8V212.2C45.9 190.3 91.6 178 140.3 178C188.8 178 234.4 190.3 274.1 211.9V112.7Z" fill="#006940"/>
<path d="M140.3 103.9C91.7 103.9 45.9 109.5 6.09998 112.7L140.3 103.9Z" fill="#006940"/>
<path d="M274.1 112.7C234.3 109.5 188.7 104 140.3 104L274.1 112.7Z" fill="#006940"/>
<path d="M238.8 22.2998C237.4 24.0998 224.8 41.1998 224.8 41.1998L224.6 41.4998C224.6 41.4998 197.5 32.5998 194.4 31.5998L229.2 52.4998L238.8 22.2998Z" fill="#FEBE10"/>
<path d="M191.3 87.5L229.1 52.5L214.3 54.7V54.8C214.3 54.8 193.4 84.6 191.3 87.5Z" fill="#FEBE10"/>
<path d="M259.9 53C257.9 52.3 241.7 47 241.7 47L229.2 52.5L259.9 53Z" fill="#FEBE10"/>
<path d="M243.5 61.6L229.2 52.5L246.2 90C246 87.3 243.5 61.6 243.5 61.6Z" fill="#FEBE10"/>
<path d="M68.9 203.4L68.1 200L76 198.1C77.4 197.7 78.3 198.1 78.5 199.2C78.6 199.7 78.5 200.2 78.2 200.6C77.9 201 77.4 201.3 76.8 201.5L68.9 203.4ZM63 197.7L66.7 212.6L71 211.5L69.8 206.7L77.9 204.7C79.9 204.2 81.3 203.4 82.1 202.2C83 201 83.2 199.7 82.8 198.1C82.4 196.6 81.6 195.5 80.3 194.9C79 194.2 77.4 194.1 75.6 194.6L63 197.7Z" fill="white"/>
<path d="M90.8 200.4L92.7 195L96.3 199.5L90.8 200.4ZM94.5 190.9L89.6 191.7L83.8 208.3L88.3 207.5L89.5 204.1L98.8 202.5L101.1 205.3L105.6 204.5L94.5 190.9Z" fill="white"/>
<path d="M120.3 191.3L113 192L114.2 203.8L109.8 204.3L108.6 192.5L101.3 193.2L100.9 189.7L119.8 187.8L120.3 191.3Z" fill="white"/>
<path d="M127.8 194.5L127.7 191L135.8 190.8C137.3 190.8 138 191.3 138 192.4C138 193 137.8 193.4 137.4 193.7C137 194 136.5 194.2 135.8 194.2L127.8 194.5ZM139.3 197.1C141.4 196.2 142.5 194.6 142.4 192.3C142.4 190.8 141.8 189.5 140.6 188.6C139.4 187.7 138 187.2 136.1 187.3L123.2 187.7L123.6 203.1L128 203L127.9 198L134.6 197.8L138.4 202.7L143.4 202.6L139.3 197.1Z" fill="white"/>
<path d="M151 202.9L146.6 202.8L147.1 187.4L151.5 187.5L151 202.9Z" fill="white"/>
<path d="M170 199.9C168.8 200.7 167.2 200.9 165.3 200.8C163.4 200.6 161.9 200.1 160.8 199.1C159.7 198.1 159.3 197 159.4 195.6C159.5 194.2 160.2 193.2 161.4 192.4C162.6 191.6 164.2 191.4 166.1 191.5C168 191.7 169.4 192.2 170.5 193.2C171.6 194.2 172 195.3 171.9 196.7C171.9 198.1 171.2 199.2 170 199.9ZM174.2 191.2C172.2 189.3 169.7 188.3 166.5 188C163.3 187.7 160.6 188.3 158.3 189.8C156.3 191.1 155.2 192.9 155 195.2C154.8 197.5 155.5 199.5 157.3 201.1C159.3 203 161.9 204 165.1 204.3C168.3 204.6 171 204 173.3 202.5C175.3 201.2 176.4 199.4 176.6 197.1C176.7 194.8 176 192.9 174.2 191.2Z" fill="white"/>
<path d="M196.7 196.2L189.5 195L187.5 206.7L183.2 206L185.2 194.3L178 193.1L178.6 189.7L197.4 192.8L196.7 196.2Z" fill="white"/>
<path d="M213.9 201.6C211.8 200 209.6 198.9 207.3 198.4C204.3 197.7 202.7 197.8 202.5 198.7C202.4 199.2 202.8 199.7 203.8 200.1C205.2 200.6 206.7 201.1 208.1 201.6C210.8 202.5 212.8 203.5 213.9 204.4C215.1 205.4 215.5 206.6 215.2 207.9C214.8 209.5 213.7 210.6 212 211.2C210.2 211.8 207.9 211.7 205 211C201.1 210.1 197.9 208.2 195.3 205.4L198.2 203.3C200.1 205.3 202.6 206.7 205.9 207.5C208.8 208.2 210.4 208.1 210.7 207.2C210.8 206.7 210.3 206.3 209.2 205.8C208.6 205.5 206.9 205 204.3 204.1C199.6 202.6 197.6 200.5 198.3 197.8C198.7 196.3 199.7 195.3 201.4 194.7C203.1 194.2 205.3 194.2 208 194.9C212 195.9 214.9 197.4 216.8 199.5L213.9 201.6Z" fill="white"/>
<path d="M63.2001 113.5C57.8 113.9 52.5 114.4 47.4001 114.9C45.9001 119.7 39.8 139.1 37.3 147.1C34.9 139.2 29.4 121.1 28 116.6C22.6 117.1 15.7 117.7 11.8 118C11.8 126.5 11.8 187.8 11.8 202.5C16.7 200 21.8 197.7 26.8 195.5C26.8 192.3 26.8 177.8 26.8 166.8C29.7 176.2 33.1 187.3 33.7001 189.5L34.5 192.3C36.4 191.6 38.3001 190.8 40.2001 190.1C41 187.5 45 175.2 48.1 165.7C48.1 173.4 48.1 184.8 48.1 187.3C53.1 185.6 58.1 184.1 63.1 182.7L63.2001 113.5Z" fill="white"/>
<path d="M48.8 116.7C48.8 116.8 37.2001 153.8 37.2001 153.8C37.2001 153.8 27.4 121.5 26.5 118.7C24.2 118.9 16.3 119.6 13.8 119.8C13.8 123 13.8 193.7 13.8 199.3C17.4 197.5 21.1 195.8 24.8 194.2C24.8 192.6 24.8 153.4 24.8 153.4L35.7001 189C35.7001 189 35.8001 189.3 35.9001 189.7C37.2001 189.2 37.9001 188.9 38.7001 188.6C39.2001 187 50.2001 153.2 50.2001 153.2C50.2001 153.2 50.2001 181.3 50.2001 184.5C53.9001 183.3 57.5 182.2 61.2001 181.1C61.2001 178.3 61.2001 119.5 61.2001 115.5C58.3 115.9 50.7001 116.6 48.8 116.7Z" fill="#FEBE10"/>
<path d="M126.1 116.5V130.7C126.1 132.9 127.5 134.5 128.9 135.9C129 136 147.4 155.3 147.4 155.3C147.4 156.5 147.4 157.1 147.4 159.4C145.4 159.4 143.5 159.4 141.5 159.4C141.5 158.1 141.5 155 141.5 155H126.1V165.5C126.1 169.4 129.9 172.2 135.1 172.2C140.3 172.2 148.5 172.5 154.1 172.5C159.5 172.5 163.1 168 163.1 164.7V152C163.1 149.5 161.2 147.6 159.5 145.8C159.5 145.8 143 128.5 141.8 127.3C141.8 126.4 141.8 124.4 141.8 122.8C143.8 122.8 145.7 122.8 147.7 122.8C147.7 124 147.7 127.2 147.7 127.2H163.1V116.6C163.1 113.2 160.3 109.8 154.1 109.8H135.1C130 109.8 126.1 112.8 126.1 116.5Z" fill="white"/>
<path d="M128.1 116.5V130.7C128.1 132 128.9 133.1 130.3 134.4C130.3 134.4 130.4 134.5 147.2 152.1L149.4 154.4V155.2V161.3H139.5C139.5 161.3 139.5 158.1 139.5 156.9C136.9 156.9 130.7 156.9 128.1 156.9C128.1 159.5 128.1 165.4 128.1 165.4C128.1 168.1 131 170.1 135.1 170.1L154.1 170.4C158.4 170.4 161.1 166.9 161.1 164.6V151.9C161.1 150.2 159.6 148.7 158.1 147.1C151.5 140.1 141.3 129.5 140.4 128.7L139.7 128.1V120.8H149.6C149.6 120.8 149.6 124 149.6 125.2C152.2 125.2 158.4 125.2 161 125.2C161 122.6 161 116.6 161 116.6C161 114.4 159.2 111.8 154 111.8H135C131.2 111.8 128.1 113.9 128.1 116.5Z" fill="#FEBE10"/>
<path d="M253.7 148.7C250.1 137.3 244.7 120.6 243.2 115.7C237.9 115.2 232.5 114.7 227 114.2V185.5C231.9 187.1 236.8 188.7 241.6 190.6C241.6 184.4 241.6 159.5 241.6 159.4C245.5 171.7 251.5 190.6 252.9 195.2C258.1 197.4 263.2 199.8 268.3 202.3C268.3 187.6 268.3 126.5 268.3 117.9C264.8 117.6 258.8 117.1 253.7 116.6C253.7 122 253.7 148.7 253.7 148.7Z" fill="white"/>
<path d="M229 184.2C232.6 185.3 236.1 186.6 239.6 187.8C239.6 183.1 239.6 146.4 239.6 146.4C239.6 146.4 254.1 192.1 254.6 193.8C258.6 195.5 262.5 197.3 266.3 199.2C266.3 193.4 266.3 123.2 266.3 119.8C264.1 119.6 257.6 119 255.7 118.9C255.7 122.7 255.7 161.6 255.7 161.6C255.7 161.6 241.8 118.3 241.7 117.7C239.8 117.5 232 116.8 229 116.6C229 120.5 229 181.5 229 184.2Z" fill="#FEBE10"/>
<path d="M105.7 110.6C98.9 110.9 92.1 111.3 85.5 111.8L85.1 113.3L68.3 181.4C73.7 180 79.2 178.7 84.7 177.7C85.2 175.6 88.2 164.1 88.8 161.7C88.8 161.7 98.5 161.7 102.5 161.7C103 164 104.9 172.4 105.3 174.4C110.7 173.7 116.1 173.2 121.5 172.9L105.7 110.6ZM92 148.6C92 148.6 94.1 140.2 95.9 132.8C97.5 139.8 98.8 145.8 99.4 148.6C99.4 148.6 94.9 148.6 92 148.6Z" fill="white"/>
<path d="M87 113.7V113.8C87 113.8 74.4 165.2 71.1 178.6C75.1 177.6 79.1 176.7 83.2 175.9C83.7 173.8 87.4 159.6 87.4 159.6H104.3C104.3 159.6 107 171.6 107.1 172.1C111.1 171.6 115.2 171.2 119.2 171C118.1 166.9 105.1 115.6 104.4 112.7C101.6 112.8 89.2 113.6 87 113.7ZM90 148.1L95.9 124L101.8 150.6H89.4L90 148.1Z" fill="#FEBE10"/>
<path d="M182.2 110.9C179.3 110.8 176.7 111.8 174.8 113.6C173.6 114.8 173.2 117 173.2 118V168.4C173.2 173 178.3 174.6 181.9 175.1C188.2 176.1 201.4 178.6 206.1 179.8C211.1 181 216.5 178 216.5 173.7V119C216.5 114.7 212.1 113 207.5 112.6L182.2 110.9ZM188.6 124.3C191.7 124.5 198.4 125.1 201.1 125.3C201.1 128.8 201.1 160.9 201.1 165.5C201.1 165.5 191.3 163.8 188.6 163.2C188.6 160.1 188.6 128.5 188.6 124.3Z" fill="white"/>
<path d="M176.2 115.1C175.5 115.8 175.2 117.3 175.2 118.1V168.5C175.2 171.5 179 172.7 182.2 173.3C188.7 174.3 201.9 176.8 206.6 178C208.8 178.5 211.3 178.1 212.9 176.8C213.5 176.3 214.5 175.3 214.5 173.9V119.2C214.5 116.1 210.6 115.1 207.4 114.8L182.1 113C179.7 112.8 177.7 113.6 176.2 115.1ZM186.6 164.8V122.1L203.1 123.4V167.9L186.6 164.8Z" fill="#FEBE10"/>
</g>
<defs>
<clipPath id="clip0">
<rect width="281.6" height="235.3" fill="white"/>
</clipPath>
</defs>
</svg>
